<svg width="160" height="89" xmlns="http://www.w3.org/2000/svg">
  <g fill="none" fill-rule="evenodd">
    <path d="M21.48 80.504c-2.08 0-4.18.02-6.3.06-2.12.04-4.22.02-6.3-.06-.56 0-1.08.04-1.56.12-.48.08-1 .08-1.56 0-.56 0-1.08-.08-1.56-.24l-1.44-.48C1 79.184.32 77.864.72 75.944c.16-.24.16-.52 0-.84a9.93 9.93 0 0 1-.24-2.16v-2.16c0-.8-.02-1.58-.06-2.34-.04-.76-.06-1.54-.06-2.34-.08-1.44-.08-2.86 0-4.26s.16-2.78.24-4.14c0-1.12.02-2.24.06-3.36.04-1.12.06-2.24.06-3.36 0-.4-.1-.8-.3-1.2-.2-.4-.22-.8-.06-1.2.16-.88.2-1.78.12-2.7-.08-.92-.08-1.86 0-2.82.08 0 .08-.04 0-.12-.16-1.2-.18-2.4-.06-3.6.12-1.2.1-2.44-.06-3.72v-.36c.24-1.28.34-2.54.3-3.78-.04-1.24-.1-2.54-.18-3.9 0-.24.02-.5.06-.78.04-.28.06-.58.06-.9v-1.8c0-.56-.08-1.16-.24-1.8-.16-.64-.2-1.24-.12-1.8.08-.56.08-1.16 0-1.8-.16-.88-.24-1.74-.24-2.58 0-.84.08-1.7.24-2.58.08-.96.08-1.96 0-3-.32-2.4.72-4.08 3.12-5.04.32-.16.52-.24.6-.24.72.16 1.44.18 2.16.06.72-.12 1.44-.1 2.16.06 1.6.16 3.24.26 4.92.3 1.68.04 3.32-.02 4.92-.18s3.22-.22 4.86-.18c1.64.04 3.26.06 4.86.06.48 0 .96.1 1.44.3.48.2.96.38 1.44.54.56.32.88.74.96 1.26.08.52.12 1.06.12 1.62.08.64.04 1.24-.12 1.8s-.16 1.16 0 1.8c0 .4-.16.68-.48.84-1.12.8-2.4 1.2-3.84 1.2-.88 0-1.78-.02-2.7-.06-.92-.04-1.82-.02-2.7.06-.88.16-1.78.2-2.7.12-.92-.08-1.82-.16-2.7-.24-.88-.16-1.7-.16-2.46 0s-1.54.36-2.34.6c-1.36.48-2.12 1.6-2.28 3.36-.08 1.36-.14 2.66-.18 3.9-.04 1.24-.02 2.54.06 3.9.16 1.36.22 2.68.18 3.96-.04 1.28-.02 2.6.06 3.96 0 .48.1.94.3 1.38.2.44.42.86.66 1.26.16.32.4.48.72.48.64.16 1.26.3 1.86.42.6.12 1.22.1 1.86-.06.4-.08.8-.14 1.2-.18.4-.04.8.02 1.2.18.4.16.8.16 1.2 0 .72-.24 1.38-.24 1.98 0 .6.24 1.22.48 1.86.72.64.16.92.52.84 1.08-.08.88-.02 1.78.18 2.7.2.92.18 1.82-.06 2.7-.16.64-.42 1.16-.78 1.56-.36.4-.82.56-1.38.48-.72 0-1.44.04-2.16.12-.72.08-1.44.08-2.16 0-.32-.08-.62-.14-.9-.18-.28-.04-.62-.02-1.02.06-2.32.24-4 1.56-5.04 3.96-.08.08-.12.24-.12.48-.08 1.12-.12 2.26-.12 3.42v3.42c0 .72.04 1.46.12 2.22.08.76.08 1.54 0 2.34-.08.96-.08 1.9 0 2.82.08.92.32 1.82.72 2.7.64 1.2 1.48 1.92 2.52 2.16 1.36.4 2.6.6 3.72.6.8-.08 1.58-.12 2.34-.12h4.32c.6 0 1.22.08 1.86.24.4.08.74.12 1.02.12h1.02c.96-.16 1.8-.12 2.52.12.88.4 1.4.74 1.56 1.02.16.28.24.86.24 1.74.08.64.14 1.24.18 1.8.04.56.06 1.16.06 1.8-.08.72-.24 1.24-.48 1.56-.24.32-.72.6-1.44.84-.64.16-1.32.26-2.04.3-.72.04-1.44.06-2.16.06-.72.08-1.44.1-2.16.06-.72-.04-1.44-.06-2.16-.06v-.12zm29.16-22.2v12.72c.08.48.12.96.12 1.44s.04.96.12 1.44c.16.72.18 1.44.06 2.16-.12.72-.22 1.44-.3 2.16 0 .64-.26 1.14-.78 1.5-.52.36-1.1.62-1.74.78-.88.16-1.7.16-2.46 0s-1.58-.32-2.46-.48c-.8 0-1.2-.48-1.2-1.44v-3.36c0-.96.02-1.94.06-2.94.04-1-.02-1.98-.18-2.94a1.95 1.95 0 0 1 0-.96c.24-.8.34-1.58.3-2.34-.04-.76-.14-1.54-.3-2.34 0-.4-.02-.76-.06-1.08-.04-.32.02-.68.18-1.08s.16-.84 0-1.32a24.16 24.16 0 0 1-.18-3.78c.04-1.24.1-2.46.18-3.66 0-.8-.06-1.6-.18-2.4-.12-.8-.14-1.6-.06-2.4.08-1.84.08-3.72 0-5.64-.16-2.08-.2-4.12-.12-6.12.08-2 .16-4.04.24-6.12 0-1.28-.06-2.54-.18-3.78-.12-1.24-.18-2.5-.18-3.78v-3.3c0-1.08.08-2.18.24-3.3.16-1.12.2-2.18.12-3.18-.08-1-.12-2.06-.12-3.18-.08-.72.2-1.56.84-2.52.64-.88 1.6-1.44 2.88-1.68 1.6-.16 3.14-.28 4.62-.36 1.48-.08 2.98.04 4.5.36h.48c2.08-.16 3.96.14 5.64.9 1.68.76 3.32 1.7 4.92 2.82.72.48 1.36 1.04 1.92 1.68.56.64 1.24 1.2 2.04 1.68.24.24.36.4.36.48.32.96.74 1.88 1.26 2.76.52.88.94 1.8 1.26 2.76a7.05 7.05 0 0 1 .48 2.52c-.08 1.12-.08 2.2 0 3.24s.04 2.12-.12 3.24c-.08 1.12-.12 2.28-.12 3.48 0 1.2-.2 2.36-.6 3.48-.56 1.6-1.18 3.22-1.86 4.86-.68 1.64-1.7 3.06-3.06 4.26l-.96.96c-.64.64-1 1.32-1.08 2.04-.08.72 0 1.52.24 2.4.64 2.56 1.48 5 2.52 7.32 1.04 2.32 1.96 4.72 2.76 7.2.08.56.32 1.08.72 1.56.88 1.12 1.52 2.32 1.92 3.6.4 1.28.76 2.6 1.08 3.96.24.96.56 1.86.96 2.7.4.84.8 1.7 1.2 2.58.48.72.48 1.32 0 1.8-.32.32-.62.64-.9.96-.28.32-.7.4-1.26.24-.88-.16-1.72-.32-2.52-.48-.8-.16-1.64-.16-2.52 0-.56 0-1.04-.28-1.44-.84-.64-.56-1.12-1.2-1.44-1.92l-.96-2.16-1.2-3.6c-.4-1.2-.84-2.36-1.32-3.48a289.66 289.66 0 0 1-4.08-9.6 18.1 18.1 0 0 1-1.44-3.96c-.32-1.12-.7-2.16-1.14-3.12-.44-.96-.9-1.92-1.38-2.88 0-.08-.04-.16-.12-.24-.24-.24-.48-.52-.72-.84-.24-.32-.56-.44-.96-.36-.88.16-1.48.72-1.8 1.68-.16.8-.34 1.56-.54 2.28-.2.72-.22 1.52-.06 2.4.08.72.1 1.46.06 2.22-.04.76-.06 1.54-.06 2.34h-.12zm13.2-30.96v-2.28c-.08-1.2-.2-2.38-.36-3.54-.16-1.16-.6-2.26-1.32-3.3-.32-.4-.62-.76-.9-1.08-.28-.32-.62-.56-1.02-.72-.64-.24-1.08-.6-1.32-1.08-.16-.16-.3-.28-.42-.36-.12-.08-.26-.2-.42-.36-.88-.64-1.82-.98-2.82-1.02-1-.04-2.02.06-3.06.3-.48.08-.76.4-.84.96-.16.88-.28 1.74-.36 2.58-.08.84-.16 1.7-.24 2.58 0 1.84.02 3.62.06 5.34.04 1.72-.02 3.46-.18 5.22-.16 1.84-.12 3.52.12 5.04.24 1.84 1.16 2.84 2.76 3 .72 0 1.44-.04 2.16-.12.72-.08 1.4-.24 2.04-.48 1.12-.48 2.1-1.08 2.94-1.8.84-.72 1.54-1.64 2.1-2.76.48-.96.8-1.94.96-2.94.16-1 .2-2.06.12-3.18z" fill="#B31F6F"/>
    <path d="M144.74 6.14c2.12-.04 4.22-.02 6.3.06.56 0 1.08-.04 1.56-.12.48-.08 1-.08 1.56 0 .56 0 1.08.08 1.56.24l1.44.48c1.76.72 2.44 2.04 2.04 3.96-.16.24-.16.52 0 .84.16.72.24 1.44.24 2.16v2.16c0 .8.02 1.58.06 2.34.04.76.06 1.54.06 2.34.08 1.44.08 2.86 0 4.26s-.16 2.78-.24 4.14c0 1.12-.02 2.24-.06 3.36-.04 1.12-.06 2.24-.06 3.36 0 .4.1.8.3 1.2.2.4.22.8.06 1.2-.16.88-.2 1.78-.12 2.7.08.92.08 1.86 0 2.82.16 1.32.18 2.52.06 3.72-.12 1.2-.1 2.44.06 3.72v.36c-.24 1.28-.34 2.54-.3 3.78.04 1.24.1 2.54.18 3.9 0 .24-.02.5-.06.78-.04.28-.06.58-.06.9v1.8c0 .56.08 1.16.24 1.8.16.64.2 1.24.12 1.8-.08.56-.08 1.16 0 1.8.16.88.24 1.74.24 2.58 0 .84-.08 1.7-.24 2.58-.08.96-.08 1.96 0 3 .32 2.4-.72 4.08-3.12 5.04-.32.16-.52.24-.6.24-.72-.16-1.44-.18-2.16-.06-.72.12-1.44.1-2.16-.06-1.6-.16-3.24-.26-4.92-.3-1.68-.04-3.32.02-4.92.18s-3.22.22-4.86.18c-1.64-.04-3.26-.06-4.86-.06-.48 0-.96-.1-1.44-.3-.48-.2-.96-.38-1.44-.54-.56-.32-.88-.74-.96-1.26-.08-.52-.12-1.06-.12-1.62-.08-.64-.04-1.24.12-1.8s.16-1.16 0-1.8c0-.4.16-.68.48-.84 1.12-.8 2.4-1.2 3.84-1.2.88 0 1.78.02 2.7.06.92.04 1.82.02 2.7-.06.88-.16 1.78-.2 2.7-.12.92.08 1.82.16 2.7.24.88.16 1.7.16 2.46 0s1.54-.36 2.34-.6c1.36-.48 2.12-1.6 2.28-3.36.08-1.36.14-2.66.18-3.9.04-1.24.02-2.54-.06-3.9-.16-1.36-.22-2.68-.18-3.96.04-1.28.02-2.6-.06-3.96 0-.48-.1-.94-.3-1.38-.2-.44-.42-.86-.66-1.26-.16-.32-.4-.48-.72-.48-.64-.16-1.26-.3-1.86-.42-.6-.12-1.22-.1-1.86.06-.4.08-.8.14-1.2.18-.4.04-.8-.02-1.2-.18-.4-.16-.8-.16-1.2 0-.72.24-1.38.24-1.98 0-.6-.24-1.22-.48-1.86-.72-.64-.16-.92-.52-.84-1.08.08-.88.02-1.78-.18-2.7-.2-.92-.18-1.82.06-2.7.16-.64.42-1.16.78-1.56.36-.4.82-.56 1.38-.48.72 0 1.44-.04 2.16-.12a9.75 9.75 0 0 1 2.16 0c.32.08.62.14.9.18.28.04.62.02 1.02-.06 2.32-.24 4-1.56 5.04-3.96.08-.08.12-.24.12-.48.08-1.12.12-2.26.12-3.42V28.4c0-.72-.04-1.46-.12-2.22-.08-.76-.08-1.54 0-2.34.08-.96.08-1.9 0-2.82-.08-.92-.32-1.82-.72-2.7-.64-1.2-1.48-1.92-2.52-2.16-1.36-.4-2.6-.6-3.72-.6-.8.08-1.58.12-2.34.12h-4.32c-.6 0-1.22-.08-1.86-.24-.4-.08-.74-.12-1.02-.12h-1.02c-.96.16-1.8.12-2.52-.12-.88-.4-1.4-.74-1.56-1.02-.16-.28-.24-.86-.24-1.74-.08-.64-.14-1.24-.18-1.8-.04-.56-.06-1.16-.06-1.8.08-.72.24-1.24.48-1.56.24-.32.72-.6 1.44-.84.64-.16 1.32-.26 2.04-.3.72-.04 1.44-.06 2.16-.06.72-.08 1.44-.1 2.16-.06.72.04 1.44.06 2.16.06 2.08.12 4.18.1 6.3.06zM110.28 58.304v12.72c-.08.48-.12.96-.12 1.44s-.04.96-.12 1.44c-.16.72-.18 1.44-.06 2.16.12.72.22 1.44.3 2.16 0 .64.26 1.14.78 1.5.52.36 1.1.62 1.74.78.88.16 1.7.16 2.46 0s1.58-.32 2.46-.48c.8 0 1.2-.48 1.2-1.44v-3.36c0-.96-.02-1.94-.06-2.94-.04-1 .02-1.98.18-2.94.08-.32.08-.64 0-.96-.24-.8-.34-1.58-.3-2.34.04-.76.14-1.54.3-2.34 0-.4.02-.76.06-1.08.04-.32-.02-.68-.18-1.08s-.16-.84 0-1.32c.16-1.28.22-2.54.18-3.78-.04-1.24-.1-2.46-.18-3.66 0-.8.06-1.6.18-2.4.12-.8.14-1.6.06-2.4-.08-1.84-.08-3.72 0-5.64.16-2.08.2-4.12.12-6.12-.08-2-.16-4.04-.24-6.12 0-1.28.06-2.54.18-3.78.12-1.24.18-2.5.18-3.78v-3.3c0-1.08-.08-2.18-.24-3.3-.16-1.12-.2-2.18-.12-3.18.08-1 .12-2.06.12-3.18.08-.72-.2-1.56-.84-2.52-.64-.88-1.6-1.44-2.88-1.68-1.6-.16-3.14-.28-4.62-.36-1.48-.08-2.98.04-4.5.36h-.48c-2.08-.16-3.96.14-5.64.9-1.68.76-3.32 1.7-4.92 2.82-.72.48-1.36 1.04-1.92 1.68a8.48 8.48 0 0 1-2.04 1.68c-.24.24-.36.4-.36.48-.32.96-.74 1.88-1.26 2.76-.52.88-.94 1.8-1.26 2.76a7.05 7.05 0 0 0-.48 2.52c.08 1.12.08 2.2 0 3.24s-.04 2.12.12 3.24c.08 1.12.12 2.28.12 3.48 0 1.2.2 2.36.6 3.48.56 1.6 1.18 3.22 1.86 4.86.68 1.64 1.7 3.06 3.06 4.26l.96.96c.64.64 1 1.32 1.08 2.04.08.72 0 1.52-.24 2.4-.64 2.56-1.48 5-2.52 7.32a70.488 70.488 0 0 0-2.76 7.2c-.08.56-.32 1.08-.72 1.56-.88 1.12-1.52 2.32-1.92 3.6-.4 1.28-.76 2.6-1.08 3.96-.24.96-.56 1.86-.96 2.7-.4.84-.8 1.7-1.2 2.58-.48.72-.48 1.32 0 1.8.32.32.62.64.9.96.28.32.7.4 1.26.24.88-.16 1.72-.32 2.52-.48.8-.16 1.64-.16 2.52 0 .56 0 1.04-.28 1.44-.84.64-.56 1.12-1.2 1.44-1.92l.96-2.16 1.2-3.6c.4-1.2.84-2.36 1.32-3.48 1.36-3.04 2.72-6.24 4.08-9.6a18.1 18.1 0 0 0 1.44-3.96c.32-1.12.7-2.16 1.14-3.12.44-.96.9-1.92 1.38-2.88 0-.08.04-.16.12-.24.24-.24.48-.52.72-.84.24-.32.56-.44.96-.36.88.16 1.48.72 1.8 1.68.16.8.34 1.56.54 2.28.2.72.22 1.52.06 2.4-.08.72-.1 1.46-.06 2.22.04.76.06 1.54.06 2.34h.12zm-13.2-30.96v-2.28c.08-1.2.2-2.38.36-3.54.16-1.16.6-2.26 1.32-3.3.32-.4.62-.76.9-1.08.28-.32.62-.56 1.02-.72.64-.24 1.08-.6 1.32-1.08.16-.16.3-.28.42-.36.12-.08.26-.2.42-.36.88-.64 1.82-.98 2.82-1.02 1-.04 2.02.06 3.06.3.48.08.76.4.84.96.16.88.28 1.74.36 2.58.08.84.16 1.7.24 2.58 0 1.84-.02 3.62-.06 5.34-.04 1.72.02 3.46.18 5.22.16 1.84.12 3.52-.12 5.04-.24 1.84-1.16 2.84-2.76 3-.72 0-1.44-.04-2.16-.12-.72-.08-1.4-.24-2.04-.48-1.12-.48-2.1-1.08-2.94-1.8-.84-.72-1.54-1.64-2.1-2.76-.48-.96-.8-1.94-.96-2.94-.16-1-.2-2.06-.12-3.18z" fill="#139EA3"/>
  </g>
</svg>
