<?xml version="1.0" encoding="UTF-8"?>
<svg width="170px" height="89px" viewBox="0 0 170 89" version="1.1" xmlns="http://www.w3.org/2000/svg" xmlns:xlink="http://www.w3.org/1999/xlink">
    <!-- Generator: Sketch 44.1 (41455) - http://www.bohemiancoding.com/sketch -->
    <title>Slice</title>
    <desc>Created with Sketch.</desc>
    <defs></defs>
    <g id="Page-1" stroke="none" stroke-width="1" fill="none" fill-rule="evenodd">
        <path d="M26.48,80.5040003 C24.3999896,80.5040003 22.3000106,80.5240001 20.18,80.5640003 C18.0599894,80.6040005 15.9600104,80.5840007 13.88,80.5040003 C13.3199972,80.5040003 12.8000024,80.5439999 12.32,80.6240003 C11.8399976,80.7040007 11.3200028,80.7040007 10.76,80.6240003 C10.1999972,80.6240003 9.6800024,80.5440011 9.2,80.3840003 L7.76,79.9040003 C5.9999912,79.1839967 5.319998,77.8640099 5.72,75.9440003 C5.8800008,75.7039991 5.8800008,75.4240019 5.72,75.1040003 C5.5599992,74.3839967 5.48,73.6640039 5.48,72.9440003 L5.48,70.7840003 C5.48,69.9839963 5.4600002,69.2040041 5.42,68.4440003 C5.3799998,67.6839965 5.36,66.9040043 5.36,66.1040003 C5.2799996,64.6639931 5.2799996,63.2440073 5.36,61.8440003 C5.4400004,60.4439933 5.5199996,59.0640071 5.6,57.7040003 C5.6,56.5839947 5.6199998,55.4640059 5.66,54.3440003 C5.7000002,53.2239947 5.72,52.1040059 5.72,50.9840003 C5.72,50.5839983 5.620001,50.1840023 5.42,49.7840003 C5.219999,49.3839983 5.1999992,48.9840023 5.36,48.5840003 C5.5200008,47.7039959 5.5600004,46.8040049 5.48,45.8840003 C5.3999996,44.9639957 5.3999996,44.0240051 5.48,43.0640003 C5.5600004,43.0640003 5.5600004,43.0240007 5.48,42.9440003 C5.3199992,41.7439943 5.2999994,40.5440063 5.42,39.3440003 C5.5400006,38.1439943 5.5200008,36.9040067 5.36,35.6240003 L5.36,35.2640003 C5.6000012,33.9839939 5.7000002,32.7240065 5.66,31.4840003 C5.6199998,30.2439941 5.5600004,28.9440071 5.48,27.5840003 C5.48,27.3439991 5.4999998,27.0840017 5.54,26.8040003 C5.5800002,26.5239989 5.6,26.2240019 5.6,25.9040003 L5.6,24.1040003 C5.6,23.5439975 5.5200008,22.9440035 5.36,22.3040003 C5.1999992,21.6639971 5.1599996,21.0640031 5.24,20.5040003 C5.3200004,19.9439975 5.3200004,19.3440035 5.24,18.7040003 C5.0799992,17.8239959 5,16.9640045 5,16.1240003 C5,15.2839961 5.0799992,14.4240047 5.24,13.5440003 C5.3200004,12.5839955 5.3200004,11.5840055 5.24,10.5440003 C4.9199984,8.14398831 5.959988,6.46400511 8.36,5.50400031 C8.6800016,5.34399951 8.8799996,5.26400031 8.96,5.26400031 C9.6800036,5.42400111 10.3999964,5.44400091 11.12,5.32400031 C11.8400036,5.20399971 12.5599964,5.22399951 13.28,5.38400031 C14.880008,5.54400111 16.5199916,5.64400011 18.2,5.68400031 C19.8800084,5.72400051 21.519992,5.66400111 23.12,5.50400031 C24.720008,5.34399951 26.3399918,5.28400011 27.98,5.32400031 C29.6200082,5.36400051 31.239992,5.38400031 32.84,5.38400031 C33.3200024,5.38400031 33.7999976,5.48399931 34.28,5.68400031 C34.7600024,5.88400131 35.2399976,6.06399951 35.72,6.22400031 C36.2800028,6.54400191 36.5999996,6.96399771 36.68,7.48400031 C36.7600004,8.00400291 36.8,8.54399751 36.8,9.10400031 C36.8800004,9.74400351 36.8400008,10.3439975 36.68,10.9040003 C36.5199992,11.4640031 36.5199992,12.0639971 36.68,12.7040003 C36.68,13.1040023 36.5200016,13.3839995 36.2,13.5440003 C35.0799944,14.3440043 33.8000072,14.7440003 32.36,14.7440003 C31.4799956,14.7440003 30.5800046,14.7240005 29.66,14.6840003 C28.7399954,14.6440001 27.8400044,14.6639999 26.96,14.7440003 C26.0799956,14.9040011 25.1800046,14.9440007 24.26,14.8640003 C23.3399954,14.7839999 22.4400044,14.7040007 21.56,14.6240003 C20.6799956,14.4639995 19.8600038,14.4639995 19.1,14.6240003 C18.3399962,14.7840011 17.560004,14.9839991 16.76,15.2240003 C15.3999932,15.7040027 14.6400008,16.8239915 14.48,18.5840003 C14.3999996,19.9440071 14.3400002,21.2439941 14.3,22.4840003 C14.2599998,23.7240065 14.2799996,25.0239935 14.36,26.3840003 C14.5200008,27.7440071 14.5800002,29.0639939 14.54,30.3440003 C14.4999998,31.6240067 14.5199996,32.9439935 14.6,34.3040003 C14.6,34.7840027 14.699999,35.2439981 14.9,35.6840003 C15.100001,36.1240025 15.3199988,36.5439983 15.56,36.9440003 C15.7200008,37.2640019 15.9599984,37.4240003 16.28,37.4240003 C16.9200032,37.5840011 17.539997,37.7239997 18.14,37.8440003 C18.740003,37.9640009 19.3599968,37.9440011 20,37.7840003 C20.400002,37.7039999 20.799998,37.6440005 21.2,37.6040003 C21.600002,37.5640001 21.999998,37.6239995 22.4,37.7840003 C22.800002,37.9440011 23.199998,37.9440011 23.6,37.7840003 C24.3200036,37.5439991 24.979997,37.5439991 25.58,37.7840003 C26.180003,38.0240015 26.7999968,38.2639991 27.44,38.5040003 C28.0800032,38.6640011 28.3600004,39.0239975 28.28,39.5840003 C28.1999996,40.4640047 28.259999,41.3639957 28.46,42.2840003 C28.660001,43.2040049 28.6400012,44.1039959 28.4,44.9840003 C28.2399992,45.6240035 27.9800018,46.1439983 27.62,46.5440003 C27.2599982,46.9440023 26.8000028,47.1040007 26.24,47.0240003 C25.5199964,47.0240003 24.8000036,47.0639999 24.08,47.1440003 C23.3599964,47.2240007 22.6400036,47.2240007 21.92,47.1440003 C21.5999984,47.0639999 21.3000014,47.0040005 21.02,46.9640003 C20.7399986,46.9240001 20.400002,46.9439999 20,47.0240003 C17.6799884,47.2640015 16.0000052,48.5839883 14.96,50.9840003 C14.8799996,51.0640007 14.84,51.2239991 14.84,51.4640003 C14.7599996,52.5840059 14.72,53.7239945 14.72,54.8840003 L14.72,58.3040003 C14.72,59.0240039 14.7599996,59.7639965 14.84,60.5240003 C14.9200004,61.2840041 14.9200004,62.0639963 14.84,62.8640003 C14.7599996,63.8240051 14.7599996,64.7639957 14.84,65.6840003 C14.9200004,66.6040049 15.159998,67.5039959 15.56,68.3840003 C16.2000032,69.5840063 17.0399948,70.3039991 18.08,70.5440003 C19.4400068,70.9440023 20.6799944,71.1440003 21.8,71.1440003 C22.600004,71.0639999 23.3799962,71.0240003 24.14,71.0240003 L28.46,71.0240003 C29.060003,71.0240003 29.6799968,71.1039995 30.32,71.2640003 C30.720002,71.3440007 31.0599986,71.3840003 31.34,71.3840003 L32.36,71.3840003 C33.3200048,71.2239995 34.1599964,71.2639991 34.88,71.5040003 C35.7600044,71.9040023 36.2799992,72.2439989 36.44,72.5240003 C36.6000008,72.8040017 36.68,73.3839959 36.68,74.2640003 C36.7600004,74.9040035 36.8199998,75.5039975 36.86,76.0640003 C36.9000002,76.6240031 36.92,77.2239971 36.92,77.8640003 C36.8399996,78.5840039 36.6800012,79.1039987 36.44,79.4240003 C36.1999988,79.7440019 35.7200036,80.0239991 35,80.2640003 C34.3599968,80.4240011 33.6800036,80.5240001 32.96,80.5640003 C32.2399964,80.6040005 31.5200036,80.6240003 30.8,80.6240003 C30.0799964,80.7040007 29.3600036,80.7240005 28.64,80.6840003 C27.9199964,80.6440001 27.2000036,80.6240003 26.48,80.6240003 L26.48,80.5040003 Z M55.64,58.3040003 L55.64,71.0240003 C55.7200004,71.5040027 55.76,71.9839979 55.76,72.4640003 C55.76,72.9440027 55.7999996,73.4239979 55.88,73.9040003 C56.0400008,74.6240039 56.0600006,75.3439967 55.94,76.0640003 C55.8199994,76.7840039 55.7200004,77.5039967 55.64,78.2240003 C55.64,78.8640035 55.3800026,79.3639985 54.86,79.7240003 C54.3399974,80.0840021 53.7600032,80.3439995 53.12,80.5040003 C52.2399956,80.6640011 51.4200038,80.6640011 50.66,80.5040003 C49.8999962,80.3439995 49.0800044,80.1840011 48.2,80.0240003 C47.399996,80.0240003 47,79.5440051 47,78.5840003 L47,75.2240003 C47,74.2639955 47.0199998,73.2840053 47.06,72.2840003 C47.1000002,71.2839953 47.0400008,70.3040051 46.88,69.3440003 C46.7999996,69.0239987 46.7999996,68.7040019 46.88,68.3840003 C47.1200012,67.5839963 47.2200002,66.8040041 47.18,66.0440003 C47.1399998,65.2839965 47.0400008,64.5040043 46.88,63.7040003 C46.88,63.3039983 46.8600002,62.9440019 46.82,62.6240003 C46.7799998,62.3039987 46.8399992,61.9440023 47,61.5440003 C47.1600008,61.1439983 47.1600008,60.7040027 47,60.2240003 C46.8399992,58.9439939 46.7799998,57.6840065 46.82,56.4440003 C46.8600002,55.2039941 46.9199996,53.9840063 47,52.7840003 C47,51.9839963 46.9400006,51.1840043 46.82,50.3840003 C46.6999994,49.5839963 46.6799996,48.7840043 46.76,47.9840003 C46.8400004,46.1439911 46.8400004,44.2640099 46.76,42.3440003 C46.5999992,40.2639899 46.5599996,38.2240103 46.64,36.2240003 C46.7200004,34.2239903 46.7999996,32.1840107 46.88,30.1040003 C46.88,28.8239939 46.8200006,27.5640065 46.7,26.3240003 C46.5799994,25.0839941 46.52,23.8240067 46.52,22.5440003 L46.52,19.2440003 C46.52,18.1639949 46.5999992,17.0640059 46.76,15.9440003 C46.9200008,14.8239947 46.9600004,13.7640053 46.88,12.7640003 C46.7999996,11.7639953 46.76,10.7040059 46.76,9.58400031 C46.6799996,8.86399671 46.9599968,8.02400511 47.6,7.06400031 C48.2400032,6.18399591 49.1999936,5.62400151 50.48,5.38400031 C52.080008,5.22399951 53.6199926,5.10400071 55.1,5.02400031 C56.5800074,4.94399991 58.0799924,5.06399871 59.6,5.38400031 L60.08,5.38400031 C62.1600104,5.22399951 64.0399916,5.52399651 65.72,6.28400031 C67.4000084,7.04400411 69.039992,7.98399471 70.64,9.10400031 C71.3600036,9.58400271 71.9999972,10.1439971 72.56,10.7840003 C73.1200028,11.4240035 73.799996,11.9839979 74.6,12.4640003 C74.8400012,12.7040015 74.96,12.8639999 74.96,12.9440003 C75.2800016,13.9040051 75.6999974,14.8239959 76.22,15.7040003 C76.7400026,16.5840047 77.1599984,17.5039955 77.48,18.4640003 C77.6400008,18.8640023 77.7599996,19.2839981 77.84,19.7240003 C77.9200004,20.1640025 77.96,20.5839983 77.96,20.9840003 C77.8799996,22.1040059 77.8799996,23.1839951 77.96,24.2240003 C78.0400004,25.2640055 78.0000008,26.3439947 77.84,27.4640003 C77.7599996,28.5840059 77.72,29.7439943 77.72,30.9440003 C77.72,32.1440063 77.520002,33.3039947 77.12,34.4240003 C76.5599972,36.0240083 75.9400034,37.6439921 75.26,39.2840003 C74.5799966,40.9240085 73.5600068,42.3439943 72.2,43.5440003 L71.24,44.5040003 C70.5999968,45.1440035 70.2400004,45.8239967 70.16,46.5440003 C70.0799996,47.2640039 70.1599988,48.0639959 70.4,48.9440003 C71.0400032,51.5040131 71.8799948,53.9439887 72.92,56.2640003 C73.9600052,58.5840119 74.879996,60.9839879 75.68,63.4640003 C75.7600004,64.0240031 75.999998,64.5439979 76.4,65.0240003 C77.2800044,66.1440059 77.919998,67.3439939 78.32,68.6240003 C78.720002,69.9040067 79.0799984,71.2239935 79.4,72.5840003 C79.6400012,73.5440051 79.959998,74.4439961 80.36,75.2840003 C80.760002,76.1240045 81.159998,76.9839959 81.56,77.8640003 C82.0400024,78.5840039 82.0400024,79.1839979 81.56,79.6640003 C81.2399984,79.9840019 80.9400014,80.3039987 80.66,80.6240003 C80.3799986,80.9440019 79.9600028,81.0240011 79.4,80.8640003 C78.5199956,80.7039995 77.680004,80.5440011 76.88,80.3840003 C76.079996,80.2239995 75.2400044,80.2239995 74.36,80.3840003 C73.7999972,80.3840003 73.320002,80.1040031 72.92,79.5440003 C72.2799968,78.9839975 71.8000016,78.3440039 71.48,77.6240003 L70.52,75.4640003 L69.32,71.8640003 C68.919998,70.6639943 68.4800024,69.5040059 68,68.3840003 C66.6399932,65.3439851 65.2800068,62.1440171 63.92,58.7840003 C63.2799968,57.5039939 62.8000016,56.1840071 62.48,54.8240003 C62.1599984,53.7039947 61.7800022,52.6640051 61.34,51.7040003 C60.8999978,50.7439955 60.4400024,49.7840051 59.96,48.8240003 C59.96,48.7439999 59.9200004,48.6640007 59.84,48.5840003 C59.5999988,48.3439991 59.3600012,48.0640019 59.12,47.7440003 C58.8799988,47.4239987 58.560002,47.3039999 58.16,47.3840003 C57.2799956,47.5440011 56.6800016,48.1039955 56.36,49.0640003 C56.1999992,49.8640043 56.020001,50.6239967 55.82,51.3440003 C55.619999,52.0640039 55.5999992,52.8639959 55.76,53.7440003 C55.8400004,54.4640039 55.8600002,55.2039965 55.82,55.9640003 C55.7799998,56.7240041 55.76,57.5039963 55.76,58.3040003 L55.64,58.3040003 Z M68.84,27.3440003 L68.84,25.0640003 C68.7599996,23.8639943 68.6400008,22.6840061 68.48,21.5240003 C68.3199992,20.3639945 67.8800036,19.2640055 67.16,18.2240003 C66.8399984,17.8239983 66.5400014,17.4640019 66.26,17.1440003 C65.9799986,16.8239987 65.640002,16.5840011 65.24,16.4240003 C64.5999968,16.1839991 64.1600012,15.8240027 63.92,15.3440003 C63.7599992,15.1839995 63.6200006,15.0640007 63.5,14.9840003 C63.3799994,14.9039999 63.2400008,14.7840011 63.08,14.6240003 C62.1999956,13.9839971 61.260005,13.6440005 60.26,13.6040003 C59.259995,13.5640001 58.2400052,13.6639991 57.2,13.9040003 C56.7199976,13.9840007 56.4400004,14.3039975 56.36,14.8640003 C56.1999992,15.7440047 56.0800004,16.6039961 56,17.4440003 C55.9199996,18.2840045 55.8400004,19.1439959 55.76,20.0240003 C55.76,21.8640095 55.7799998,23.6439917 55.82,25.3640003 C55.8600002,27.0840089 55.8000008,28.8239915 55.64,30.5840003 C55.4799992,32.4240095 55.5199988,34.1039927 55.76,35.6240003 C56.0000012,37.4640095 56.919992,38.4639995 58.52,38.6240003 C59.2400036,38.6240003 59.9599964,38.5840007 60.68,38.5040003 C61.4000036,38.4239999 62.0799968,38.2640015 62.72,38.0240003 C63.8400056,37.5439979 64.8199958,36.9440039 65.66,36.2240003 C66.5000042,35.5039967 67.1999972,34.5840059 67.76,33.4640003 C68.2400024,32.5039955 68.5599992,31.5240053 68.72,30.5240003 C68.8800008,29.5239953 68.9200004,28.4640059 68.84,27.3440003 Z" id="erre" fill="#B31F6F"></path>
        <path d="M148.18,81.3171434 C146.059989,81.3571436 143.96001,81.3371438 141.88,81.2571434 C141.319997,81.2571434 140.800002,81.297143 140.32,81.3771434 C139.839998,81.4571438 139.320003,81.4571438 138.76,81.3771434 C138.199997,81.3771434 137.680002,81.2971442 137.2,81.1371434 L135.76,80.6571434 C133.999991,79.9371398 133.319998,78.617153 133.72,76.6971434 C133.880001,76.4571422 133.880001,76.177145 133.72,75.8571434 C133.559999,75.1371398 133.48,74.417147 133.48,73.6971434 L133.48,71.5371434 C133.48,70.7371394 133.46,69.9571472 133.42,69.1971434 C133.38,68.4371396 133.36,67.6571474 133.36,66.8571434 C133.28,65.4171362 133.28,63.9971504 133.36,62.5971434 C133.44,61.1971364 133.52,59.8171502 133.6,58.4571434 C133.6,57.3371378 133.62,56.217149 133.66,55.0971434 C133.7,53.9771378 133.72,52.857149 133.72,51.7371434 C133.72,51.3371414 133.620001,50.9371454 133.42,50.5371434 C133.219999,50.1371414 133.199999,49.7371454 133.36,49.3371434 C133.520001,48.457139 133.56,47.557148 133.48,46.6371434 C133.4,45.7171388 133.4,44.7771482 133.48,43.8171434 C133.319999,42.4971374 133.299999,41.2971494 133.42,40.0971434 C133.540001,38.8971374 133.520001,37.6571498 133.36,36.3771434 L133.36,36.0171434 C133.600001,34.737137 133.7,33.4771496 133.66,32.2371434 C133.62,30.9971372 133.56,29.6971502 133.48,28.3371434 C133.48,28.0971422 133.5,27.8371448 133.54,27.5571434 C133.58,27.277142 133.6,26.977145 133.6,26.6571434 L133.6,24.8571434 C133.6,24.2971406 133.520001,23.6971466 133.36,23.0571434 C133.199999,22.4171402 133.16,21.8171462 133.24,21.2571434 C133.32,20.6971406 133.32,20.0971466 133.24,19.4571434 C133.079999,18.577139 133,17.7171476 133,16.8771434 C133,16.0371392 133.079999,15.1771478 133.24,14.2971434 C133.32,13.3371386 133.32,12.3371486 133.24,11.2971434 C132.919998,8.89713136 133.959988,7.21714816 136.36,6.25714336 C136.680002,6.09714256 136.88,6.01714336 136.96,6.01714336 C137.680004,6.17714416 138.399996,6.19714396 139.12,6.07714336 C139.840004,5.95714276 140.559996,5.97714256 141.28,6.13714336 C142.880008,6.29714416 144.519992,6.39714316 146.2,6.43714336 C147.880008,6.47714356 149.519992,6.41714416 151.12,6.25714336 C152.720008,6.09714256 154.339992,6.03714316 155.98,6.07714336 C157.620008,6.11714356 159.239992,6.13714336 160.84,6.13714336 C161.320002,6.13714336 161.799998,6.23714236 162.28,6.43714336 C162.760002,6.63714436 163.239998,6.81714256 163.72,6.97714336 C164.280003,7.29714496 164.6,7.71714076 164.68,8.23714336 C164.76,8.75714596 164.8,9.29714056 164.8,9.85714336 C164.88,10.4971466 164.840001,11.0971406 164.68,11.6571434 C164.519999,12.2171462 164.519999,12.8171402 164.68,13.4571434 C164.68,13.8571454 164.520002,14.1371426 164.2,14.2971434 C163.079994,15.0971474 161.800007,15.4971434 160.36,15.4971434 C159.479996,15.4971434 158.580005,15.4771436 157.66,15.4371434 C156.739995,15.3971432 155.840004,15.417143 154.96,15.4971434 C154.079996,15.6571442 153.180005,15.6971438 152.26,15.6171434 C151.339995,15.537143 150.440004,15.4571438 149.56,15.3771434 C148.679996,15.2171426 147.860004,15.2171426 147.1,15.3771434 C146.339996,15.5371442 145.560004,15.7371422 144.76,15.9771434 C143.399993,16.4571458 142.640001,17.5771346 142.48,19.3371434 C142.4,20.6971502 142.34,21.9971372 142.3,23.2371434 C142.26,24.4771496 142.28,25.7771366 142.36,27.1371434 C142.520001,28.4971502 142.58,29.817137 142.54,31.0971434 C142.5,32.3771498 142.52,33.6971366 142.6,35.0571434 C142.6,35.5371458 142.699999,35.9971412 142.9,36.4371434 C143.100001,36.8771456 143.319999,37.2971414 143.56,37.6971434 C143.720001,38.017145 143.959998,38.1771434 144.28,38.1771434 C144.920003,38.3371442 145.539997,38.4771428 146.14,38.5971434 C146.740003,38.717144 147.359997,38.6971442 148,38.5371434 C148.400002,38.457143 148.799998,38.3971436 149.2,38.3571434 C149.600002,38.3171432 149.999998,38.3771426 150.4,38.5371434 C150.800002,38.6971442 151.199998,38.6971442 151.6,38.5371434 C152.320004,38.2971422 152.979997,38.2971422 153.58,38.5371434 C154.180003,38.7771446 154.799997,39.0171422 155.44,39.2571434 C156.080003,39.4171442 156.36,39.7771406 156.28,40.3371434 C156.2,41.2171478 156.259999,42.1171388 156.46,43.0371434 C156.660001,43.957148 156.640001,44.857139 156.4,45.7371434 C156.239999,46.3771466 155.980002,46.8971414 155.62,47.2971434 C155.259998,47.6971454 154.800003,47.8571438 154.24,47.7771434 C153.519996,47.7771434 152.800004,47.817143 152.08,47.8971434 C151.359996,47.9771438 150.640004,47.9771438 149.92,47.8971434 C149.599998,47.817143 149.300001,47.7571436 149.02,47.7171434 C148.739999,47.6771432 148.400002,47.697143 148,47.7771434 C145.679988,48.0171446 144.000005,49.3371314 142.96,51.7371434 C142.88,51.8171438 142.84,51.9771422 142.84,52.2171434 C142.76,53.337149 142.72,54.4771376 142.72,55.6371434 L142.72,59.0571434 C142.72,59.777147 142.76,60.5171396 142.84,61.2771434 C142.92,62.0371472 142.92,62.8171394 142.84,63.6171434 C142.76,64.5771482 142.76,65.5171388 142.84,66.4371434 C142.92,67.357148 143.159998,68.257139 143.56,69.1371434 C144.200003,70.3371494 145.039995,71.0571422 146.08,71.2971434 C147.440007,71.6971454 148.679994,71.8971434 149.8,71.8971434 C150.600004,71.817143 151.379996,71.7771434 152.14,71.7771434 L156.46,71.7771434 C157.060003,71.7771434 157.679997,71.8571426 158.32,72.0171434 C158.720002,72.0971438 159.059999,72.1371434 159.34,72.1371434 L160.36,72.1371434 C161.320005,71.9771426 162.159996,72.0171422 162.88,72.2571434 C163.760004,72.6571454 164.279999,72.997142 164.44,73.2771434 C164.600001,73.5571448 164.68,74.137139 164.68,75.0171434 C164.76,75.6571466 164.82,76.2571406 164.86,76.8171434 C164.9,77.3771462 164.92,77.9771402 164.92,78.6171434 C164.84,79.337147 164.680001,79.8571418 164.44,80.1771434 C164.199999,80.497145 163.720004,80.7771422 163,81.0171434 C162.359997,81.1771442 161.680004,81.2771432 160.96,81.3171434 C160.239996,81.3571436 159.520004,81.3771434 158.8,81.3771434 C158.079996,81.4571438 157.360004,81.4771436 156.64,81.4371434 C155.919996,81.3971432 155.200004,81.3771434 154.48,81.3771434 C152.39999,81.2571434 150.300011,81.2771432 148.18,81.3171434 Z" id="Combined-Shape" fill="#139EA3" transform="translate(148.960000, 43.728572) scale(-1, -1) translate(-148.960000, -43.728572) "></path>
        <path d="M98.12,58.3040003 L98.12,71.0240003 C98.2000004,71.5040027 98.24,71.9839979 98.24,72.4640003 C98.24,72.9440027 98.2799996,73.4239979 98.36,73.9040003 C98.5200008,74.6240039 98.5400006,75.3439967 98.42,76.0640003 C98.2999994,76.7840039 98.2000004,77.5039967 98.12,78.2240003 C98.12,78.8640035 97.8600026,79.3639985 97.34,79.7240003 C96.8199974,80.0840021 96.2400032,80.3439995 95.6,80.5040003 C94.7199956,80.6640011 93.9000038,80.6640011 93.14,80.5040003 C92.3799962,80.3439995 91.5600044,80.1840011 90.68,80.0240003 C89.879996,80.0240003 89.48,79.5440051 89.48,78.5840003 L89.48,75.2240003 C89.48,74.2639955 89.4999998,73.2840053 89.54,72.2840003 C89.5800002,71.2839953 89.5200008,70.3040051 89.36,69.3440003 C89.2799996,69.0239987 89.2799996,68.7040019 89.36,68.3840003 C89.6000012,67.5839963 89.7000002,66.8040041 89.66,66.0440003 C89.6199998,65.2839965 89.5200008,64.5040043 89.36,63.7040003 C89.36,63.3039983 89.3400002,62.9440019 89.3,62.6240003 C89.2599998,62.3039987 89.3199992,61.9440023 89.48,61.5440003 C89.6400008,61.1439983 89.6400008,60.7040027 89.48,60.2240003 C89.3199992,58.9439939 89.2599998,57.6840065 89.3,56.4440003 C89.3400002,55.2039941 89.3999996,53.9840063 89.48,52.7840003 C89.48,51.9839963 89.4200006,51.1840043 89.3,50.3840003 C89.1799994,49.5839963 89.1599996,48.7840043 89.24,47.9840003 C89.3200004,46.1439911 89.3200004,44.2640099 89.24,42.3440003 C89.0799992,40.2639899 89.0399996,38.2240103 89.12,36.2240003 C89.2000004,34.2239903 89.2799996,32.1840107 89.36,30.1040003 C89.36,28.8239939 89.3000006,27.5640065 89.18,26.3240003 C89.0599994,25.0839941 89,23.8240067 89,22.5440003 L89,19.2440003 C89,18.1639949 89.0799992,17.0640059 89.24,15.9440003 C89.4000008,14.8239947 89.4400004,13.7640053 89.36,12.7640003 C89.2799996,11.7639953 89.24,10.7040059 89.24,9.58400031 C89.1599996,8.86399671 89.4399968,8.02400511 90.08,7.06400031 C90.7200032,6.18399591 91.6799936,5.62400151 92.96,5.38400031 C94.560008,5.22399951 96.0999926,5.10400071 97.58,5.02400031 C99.0600074,4.94399991 100.559992,5.06399871 102.08,5.38400031 L102.56,5.38400031 C104.64001,5.22399951 106.519992,5.52399651 108.2,6.28400031 C109.880008,7.04400411 111.519992,7.98399471 113.12,9.10400031 C113.840004,9.58400271 114.479997,10.1439971 115.04,10.7840003 C115.600003,11.4240035 116.279996,11.9839979 117.08,12.4640003 C117.320001,12.7040015 117.44,12.8639999 117.44,12.9440003 C117.760002,13.9040051 118.179997,14.8239959 118.7,15.7040003 C119.220003,16.5840047 119.639998,17.5039955 119.96,18.4640003 C120.120001,18.8640023 120.24,19.2839981 120.32,19.7240003 C120.4,20.1640025 120.44,20.5839983 120.44,20.9840003 C120.36,22.1040059 120.36,23.1839951 120.44,24.2240003 C120.52,25.2640055 120.480001,26.3439947 120.32,27.4640003 C120.24,28.5840059 120.2,29.7439943 120.2,30.9440003 C120.2,32.1440063 120.000002,33.3039947 119.6,34.4240003 C119.039997,36.0240083 118.420003,37.6439921 117.74,39.2840003 C117.059997,40.9240085 116.040007,42.3439943 114.68,43.5440003 L113.72,44.5040003 C113.079997,45.1440035 112.72,45.8239967 112.64,46.5440003 C112.56,47.2640039 112.639999,48.0639959 112.88,48.9440003 C113.520003,51.5040131 114.359995,53.9439887 115.4,56.2640003 C116.440005,58.5840119 117.359996,60.9839879 118.16,63.4640003 C118.24,64.0240031 118.479998,64.5439979 118.88,65.0240003 C119.760004,66.1440059 120.399998,67.3439939 120.8,68.6240003 C121.200002,69.9040067 121.559998,71.2239935 121.88,72.5840003 C122.120001,73.5440051 122.439998,74.4439961 122.84,75.2840003 C123.240002,76.1240045 123.639998,76.9839959 124.04,77.8640003 C124.520002,78.5840039 124.520002,79.1839979 124.04,79.6640003 C123.719998,79.9840019 123.420001,80.3039987 123.14,80.6240003 C122.859999,80.9440019 122.440003,81.0240011 121.88,80.8640003 C120.999996,80.7039995 120.160004,80.5440011 119.36,80.3840003 C118.559996,80.2239995 117.720004,80.2239995 116.84,80.3840003 C116.279997,80.3840003 115.800002,80.1040031 115.4,79.5440003 C114.759997,78.9839975 114.280002,78.3440039 113.96,77.6240003 L113,75.4640003 L111.8,71.8640003 C111.399998,70.6639943 110.960002,69.5040059 110.48,68.3840003 C109.119993,65.3439851 107.760007,62.1440171 106.4,58.7840003 C105.759997,57.5039939 105.280002,56.1840071 104.96,54.8240003 C104.639998,53.7039947 104.260002,52.6640051 103.82,51.7040003 C103.379998,50.7439955 102.920002,49.7840051 102.44,48.8240003 C102.44,48.7439999 102.4,48.6640007 102.32,48.5840003 C102.079999,48.3439991 101.840001,48.0640019 101.6,47.7440003 C101.359999,47.4239987 101.040002,47.3039999 100.64,47.3840003 C99.7599956,47.5440011 99.1600016,48.1039955 98.84,49.0640003 C98.6799992,49.8640043 98.500001,50.6239967 98.3,51.3440003 C98.099999,52.0640039 98.0799992,52.8639959 98.24,53.7440003 C98.3200004,54.4640039 98.3400002,55.2039965 98.3,55.9640003 C98.2599998,56.7240041 98.24,57.5039963 98.24,58.3040003 L98.12,58.3040003 Z M111.32,27.3440003 L111.32,25.0640003 C111.24,23.8639943 111.120001,22.6840061 110.96,21.5240003 C110.799999,20.3639945 110.360004,19.2640055 109.64,18.2240003 C109.319998,17.8239983 109.020001,17.4640019 108.74,17.1440003 C108.459999,16.8239987 108.120002,16.5840011 107.72,16.4240003 C107.079997,16.1839991 106.640001,15.8240027 106.4,15.3440003 C106.239999,15.1839995 106.100001,15.0640007 105.98,14.9840003 C105.859999,14.9039999 105.720001,14.7840011 105.56,14.6240003 C104.679996,13.9839971 103.740005,13.6440005 102.74,13.6040003 C101.739995,13.5640001 100.720005,13.6639991 99.68,13.9040003 C99.1999976,13.9840007 98.9200004,14.3039975 98.84,14.8640003 C98.6799992,15.7440047 98.5600004,16.6039961 98.48,17.4440003 C98.3999996,18.2840045 98.3200004,19.1439959 98.24,20.0240003 C98.24,21.8640095 98.2599998,23.6439917 98.3,25.3640003 C98.3400002,27.0840089 98.2800008,28.8239915 98.12,30.5840003 C97.9599992,32.4240095 97.9999988,34.1039927 98.24,35.6240003 C98.4800012,37.4640095 99.399992,38.4639995 101,38.6240003 C101.720004,38.6240003 102.439996,38.5840007 103.16,38.5040003 C103.880004,38.4239999 104.559997,38.2640015 105.2,38.0240003 C106.320006,37.5439979 107.299996,36.9440039 108.14,36.2240003 C108.980004,35.5039967 109.679997,34.5840059 110.24,33.4640003 C110.720002,32.5039955 111.039999,31.5240053 111.2,30.5240003 C111.360001,29.5239953 111.4,28.4640059 111.32,27.3440003 Z" id="Combined-Shape" fill="#139EA3" transform="translate(106.700001, 42.972001) scale(-1, 1) translate(-106.700001, -42.972001) "></path>
    </g>
</svg>